<svg id="blp_main_k" xmlns="http://www.w3.org/2000/svg" viewBox="0 0 150 41.68"><defs><style>.cls-1{fill:#fff;}</style></defs><title>logo</title><path class="cls-1" d="M2.68,41.58.93,37.77v3a.92.92,0,0,0,.09.52.49.49,0,0,0,.39.14h.16v.13H0v-.13H.16a.48.48,0,0,0,.41-.17,1,1,0,0,0,.07-.49V37.84a.9.9,0,0,0-.07-.43.35.35,0,0,0-.17-.17,1,1,0,0,0-.4-.06v-.12H1.28l1.64,3.53,1.61-3.53H5.81v.12H5.66a.47.47,0,0,0-.41.17,1,1,0,0,0-.08.49v2.95a.9.9,0,0,0,.1.52.47.47,0,0,0,.39.14h.15v.13H3.89v-.13h.16a.47.47,0,0,0,.41-.17,1,1,0,0,0,.07-.49v-3L2.79,41.58Z"/><path class="cls-1" d="M9.59,40.06H7.84l-.31.72a1,1,0,0,0-.11.39.21.21,0,0,0,.1.18.78.78,0,0,0,.42.1v.13H6.52v-.13a.62.62,0,0,0,.36-.13,1.85,1.85,0,0,0,.38-.65L8.85,37H9l1.57,3.76a1.59,1.59,0,0,0,.35.59.67.67,0,0,0,.43.15v.13H9.53v-.13a.62.62,0,0,0,.37-.09.23.23,0,0,0,.09-.18,1.34,1.34,0,0,0-.13-.47Zm-.1-.24L8.73,38l-.79,1.83Z"/><path class="cls-1" d="M11.78,37.06H13l2.77,3.39V37.84a.9.9,0,0,0-.1-.52.5.5,0,0,0-.39-.14h-.15v-.12h1.57v.12h-.16a.48.48,0,0,0-.41.17,1,1,0,0,0-.07.49v3.81H16L13,38v2.78a.92.92,0,0,0,.09.52.47.47,0,0,0,.39.14h.16v.13H12v-.13h.15a.48.48,0,0,0,.41-.17,1,1,0,0,0,.08-.49V37.65a2.67,2.67,0,0,0-.3-.3,1.05,1.05,0,0,0-.3-.14,1.1,1.1,0,0,0-.3,0Z"/><path class="cls-1" d="M20.87,37.18v-.12h1.6v.12H22.3a.47.47,0,0,0-.41.22,1.13,1.13,0,0,0-.07.48v1.84a3.24,3.24,0,0,1-.13,1.05,1.36,1.36,0,0,1-.53.65,2,2,0,0,1-1.08.26A2,2,0,0,1,19,41.43a1.36,1.36,0,0,1-.54-.69,3.88,3.88,0,0,1-.11-1.12V37.86a.94.94,0,0,0-.11-.55.49.49,0,0,0-.38-.13h-.17v-.12h2v.12h-.18a.45.45,0,0,0-.4.18,1,1,0,0,0-.08.5v2a4.83,4.83,0,0,0,.05.6,1.32,1.32,0,0,0,.17.53,1,1,0,0,0,.37.31,1.16,1.16,0,0,0,.58.13,1.64,1.64,0,0,0,.8-.2,1.08,1.08,0,0,0,.48-.49,3,3,0,0,0,.12-1V37.86a1,1,0,0,0-.09-.54.51.51,0,0,0-.39-.14Z"/><path class="cls-1" d="M24.73,37.3v1.78h.82A.57.57,0,0,0,26,39a.85.85,0,0,0,.17-.49h.12V40h-.12a.8.8,0,0,0-.07-.39.39.39,0,0,0-.18-.18.74.74,0,0,0-.34-.06h-.82v1.42a1.45,1.45,0,0,0,0,.45.27.27,0,0,0,.14.14.58.58,0,0,0,.31.08h.16v.13H23.44v-.13h.16a.49.49,0,0,0,.41-.16,1,1,0,0,0,.08-.51V37.86A1.47,1.47,0,0,0,24,37.4a.29.29,0,0,0-.13-.14.58.58,0,0,0-.31-.08h-.16v-.12H26.8l.05,1h-.12a1.4,1.4,0,0,0-.2-.47.71.71,0,0,0-.28-.21,1.44,1.44,0,0,0-.53-.07Z"/><path class="cls-1" d="M30.2,40.06H28.45l-.3.72a1,1,0,0,0-.12.39.24.24,0,0,0,.1.18.86.86,0,0,0,.43.1v.13H27.13v-.13a.66.66,0,0,0,.37-.13,2,2,0,0,0,.38-.65L29.47,37h.11l1.58,3.76a1.61,1.61,0,0,0,.34.59.72.72,0,0,0,.44.15v.13H30.15v-.13a.64.64,0,0,0,.37-.09.23.23,0,0,0,.09-.18,1.34,1.34,0,0,0-.13-.47Zm-.09-.24L29.34,38l-.78,1.83Z"/><path class="cls-1" d="M36.34,37l.11,1.54h-.11a1.84,1.84,0,0,0-.59-1,1.38,1.38,0,0,0-.92-.31,1.5,1.5,0,0,0-.81.23,1.54,1.54,0,0,0-.57.73,3.21,3.21,0,0,0-.21,1.24,2.69,2.69,0,0,0,.2,1.07,1.48,1.48,0,0,0,.59.69,1.75,1.75,0,0,0,1.68.05,2.75,2.75,0,0,0,.74-.75l.1.07a2.45,2.45,0,0,1-.79.88,2,2,0,0,1-1.08.28,2,2,0,0,1-1.74-.83,2.38,2.38,0,0,1-.46-1.46,2.62,2.62,0,0,1,.3-1.25,2.23,2.23,0,0,1,.84-.88A2.31,2.31,0,0,1,34.78,37a2.14,2.14,0,0,1,1,.24.47.47,0,0,0,.2.07.2.2,0,0,0,.15-.06.54.54,0,0,0,.13-.25Z"/><path class="cls-1" d="M41.32,37.06l0,1.06h-.13a1.2,1.2,0,0,0-.1-.4.69.69,0,0,0-.27-.29,1,1,0,0,0-.45-.09h-.64v3.45a.92.92,0,0,0,.09.52.47.47,0,0,0,.39.14h.16v.13H38.5v-.13h.16a.46.46,0,0,0,.4-.17,1,1,0,0,0,.08-.49V37.34h-.55a1.25,1.25,0,0,0-.45,0,.6.6,0,0,0-.29.24,1.05,1.05,0,0,0-.15.49h-.13l.06-1.06Z"/><path class="cls-1" d="M45.55,37.18v-.12h1.6v.12H47a.45.45,0,0,0-.41.22,1,1,0,0,0-.07.48v1.84a3.2,3.2,0,0,1-.14,1.05,1.31,1.31,0,0,1-.53.65,2,2,0,0,1-1.07.26,2.06,2.06,0,0,1-1.13-.25,1.47,1.47,0,0,1-.54-.69A3.88,3.88,0,0,1,43,39.62V37.86a.94.94,0,0,0-.11-.55.46.46,0,0,0-.37-.13h-.17v-.12h2v.12h-.17a.44.44,0,0,0-.4.18.91.91,0,0,0-.09.5v2a4.83,4.83,0,0,0,.05.6,1.18,1.18,0,0,0,.18.53.85.85,0,0,0,.36.31,1.2,1.2,0,0,0,.59.13,1.6,1.6,0,0,0,.79-.2,1.08,1.08,0,0,0,.48-.49,3,3,0,0,0,.13-1V37.86a.9.9,0,0,0-.1-.54.49.49,0,0,0-.38-.14Z"/><path class="cls-1" d="M52.61,41.58h-1.2l-1.53-2.12H49.4v1.32a.86.86,0,0,0,.1.53.46.46,0,0,0,.38.14h.17v.13H48.12v-.13h.17a.47.47,0,0,0,.41-.18,1.15,1.15,0,0,0,.07-.49V37.86a1,1,0,0,0-.1-.54.49.49,0,0,0-.38-.14h-.17v-.12h1.64a4,4,0,0,1,1.07.1,1.17,1.17,0,0,1,.57.39,1,1,0,0,1,.24.67,1,1,0,0,1-.27.72,1.53,1.53,0,0,1-.84.44l.93,1.29a2.57,2.57,0,0,0,.55.6,1.46,1.46,0,0,0,.6.18ZM49.4,39.25h.19a1.48,1.48,0,0,0,1-.28.91.91,0,0,0,.33-.72.9.9,0,0,0-1-.95,3.15,3.15,0,0,0-.53.06Z"/><path class="cls-1" d="M54.82,37.3v1.79h1a.81.81,0,0,0,.52-.12.75.75,0,0,0,.19-.54h.12V40h-.12a2,2,0,0,0-.09-.43.44.44,0,0,0-.2-.18.91.91,0,0,0-.42-.07h-1v1.49a2.3,2.3,0,0,0,0,.37.19.19,0,0,0,.1.1.49.49,0,0,0,.25,0H56a2.32,2.32,0,0,0,.55,0,1,1,0,0,0,.34-.21,2.44,2.44,0,0,0,.42-.63h.14L57,41.58H53.53v-.13h.16a.6.6,0,0,0,.3-.07.29.29,0,0,0,.15-.16,1.89,1.89,0,0,0,0-.44V37.84a1,1,0,0,0-.09-.53.51.51,0,0,0-.4-.13h-.16v-.12H57l.06,1h-.14a1.28,1.28,0,0,0-.15-.49.58.58,0,0,0-.25-.21,1.65,1.65,0,0,0-.47-.05Z"/><path class="cls-1" d="M60.75,41.58v-.13h.17a.46.46,0,0,0,.41-.18,1,1,0,0,0,.07-.49V37.86a1,1,0,0,0-.09-.54.53.53,0,0,0-.39-.14h-.17v-.12h1.84a3.86,3.86,0,0,1,1.54.23,1.74,1.74,0,0,1,.85.76,2.32,2.32,0,0,1,.33,1.24,2.28,2.28,0,0,1-.58,1.58,2.53,2.53,0,0,1-2,.71ZM62,41.25a3.51,3.51,0,0,0,.71.09A1.7,1.7,0,0,0,64,40.8a2.39,2.39,0,0,0,0-2.95,1.73,1.73,0,0,0-1.31-.54,2.67,2.67,0,0,0-.69.1Z"/><path class="cls-1" d="M67.43,37.3v1.79h1a.81.81,0,0,0,.52-.12.71.71,0,0,0,.19-.54h.13V40h-.13a2,2,0,0,0-.09-.43.4.4,0,0,0-.2-.18.91.91,0,0,0-.42-.07h-1v1.49a1.31,1.31,0,0,0,0,.37.22.22,0,0,0,.09.1.51.51,0,0,0,.25,0h.77a2.41,2.41,0,0,0,.56,0,1,1,0,0,0,.33-.21,2.44,2.44,0,0,0,.42-.63H70l-.39,1.14H66.14v-.13h.16a.67.67,0,0,0,.31-.07.27.27,0,0,0,.14-.16,1.46,1.46,0,0,0,0-.44V37.84a1,1,0,0,0-.09-.53.51.51,0,0,0-.4-.13h-.16v-.12h3.49l.05,1h-.13a1.44,1.44,0,0,0-.16-.49.53.53,0,0,0-.25-.21,1.6,1.6,0,0,0-.47-.05Z"/><path class="cls-1" d="M74.65,39.15h2.1V37.86a1.57,1.57,0,0,0,0-.46.31.31,0,0,0-.14-.14.58.58,0,0,0-.31-.08H76.1v-.12H78v.12h-.16a.58.58,0,0,0-.31.08.28.28,0,0,0-.14.16,1.41,1.41,0,0,0,0,.44v2.92a1.87,1.87,0,0,0,0,.45.32.32,0,0,0,.14.14.58.58,0,0,0,.31.08H78v.13H76.1v-.13h.16a.49.49,0,0,0,.41-.16,1,1,0,0,0,.08-.51V39.4h-2.1v1.38a1.87,1.87,0,0,0,0,.45.32.32,0,0,0,.14.14.58.58,0,0,0,.31.08h.16v.13H73.36v-.13h.16a.48.48,0,0,0,.41-.16,1,1,0,0,0,.08-.51V37.86a1.57,1.57,0,0,0,0-.46.31.31,0,0,0-.14-.14.58.58,0,0,0-.31-.08h-.16v-.12H75.3v.12h-.16a.58.58,0,0,0-.31.08.32.32,0,0,0-.14.16,1.41,1.41,0,0,0,0,.44Z"/><path class="cls-1" d="M81.94,40.06H80.19l-.3.72a1,1,0,0,0-.12.39.24.24,0,0,0,.1.18.86.86,0,0,0,.43.1v.13H78.87v-.13a.7.7,0,0,0,.37-.13,2,2,0,0,0,.38-.65L81.21,37h.11l1.58,3.76a1.61,1.61,0,0,0,.34.59.72.72,0,0,0,.43.15v.13H81.89v-.13a.64.64,0,0,0,.37-.09.23.23,0,0,0,.09-.18,1.34,1.34,0,0,0-.13-.47Zm-.09-.24L81.08,38l-.78,1.83Z"/><path class="cls-1" d="M86.92,37.18v-.12h1.6v.12h-.17a.46.46,0,0,0-.41.22,1,1,0,0,0-.07.48v1.84a3.24,3.24,0,0,1-.13,1.05,1.36,1.36,0,0,1-.53.65,2.5,2.5,0,0,1-2.2,0,1.43,1.43,0,0,1-.55-.69,4,4,0,0,1-.1-1.12V37.86a.85.85,0,0,0-.12-.55.46.46,0,0,0-.37-.13H83.7v-.12h2v.12h-.17a.44.44,0,0,0-.4.18.93.93,0,0,0-.08.5v2a4.62,4.62,0,0,0,0,.6,1.49,1.49,0,0,0,.18.53.92.92,0,0,0,.36.31,1.2,1.2,0,0,0,.59.13,1.57,1.57,0,0,0,.79-.2,1,1,0,0,0,.48-.49,2.75,2.75,0,0,0,.13-1V37.86a1,1,0,0,0-.09-.54.53.53,0,0,0-.39-.14Z"/><path class="cls-1" d="M93,37.06l0,1.06H92.9a1.25,1.25,0,0,0-.09-.4.71.71,0,0,0-.28-.29,1,1,0,0,0-.45-.09h-.64v3.45a.92.92,0,0,0,.09.52.49.49,0,0,0,.39.14h.16v.13H90.16v-.13h.16a.48.48,0,0,0,.41-.17,1,1,0,0,0,.07-.49V37.34h-.54a1.25,1.25,0,0,0-.45,0,.58.58,0,0,0-.3.24,1.05,1.05,0,0,0-.15.49h-.12l.05-1.06Z"/><path class="cls-1" d="M95.32,37.3v1.79h1a.75.75,0,0,0,.51-.12.71.71,0,0,0,.2-.54h.12V40H97a2,2,0,0,0-.09-.43.5.5,0,0,0-.2-.18.91.91,0,0,0-.42-.07h-1v1.49a1.31,1.31,0,0,0,0,.37.22.22,0,0,0,.09.1.54.54,0,0,0,.26,0h.76a2.35,2.35,0,0,0,.56,0,1,1,0,0,0,.34-.21,3.09,3.09,0,0,0,.42-.63h.13l-.39,1.14H94v-.13h.16a.63.63,0,0,0,.3-.07.33.33,0,0,0,.15-.16,1.89,1.89,0,0,0,0-.44V37.84a1,1,0,0,0-.09-.53.52.52,0,0,0-.4-.13H94v-.12h3.48l0,1h-.13a1.49,1.49,0,0,0-.15-.49.58.58,0,0,0-.25-.21,1.65,1.65,0,0,0-.47-.05Z"/><path class="cls-1" d="M102.55,39.15h2.1V37.86a1.47,1.47,0,0,0-.05-.46.31.31,0,0,0-.14-.14.52.52,0,0,0-.3-.08H104v-.12h1.93v.12h-.16a.56.56,0,0,0-.3.08.29.29,0,0,0-.15.16,2,2,0,0,0,0,.44v2.92a1.45,1.45,0,0,0,0,.45.27.27,0,0,0,.14.14.54.54,0,0,0,.3.08h.16v.13H104v-.13h.16a.47.47,0,0,0,.4-.16.9.9,0,0,0,.09-.51V39.4h-2.1v1.38a1.45,1.45,0,0,0,0,.45.27.27,0,0,0,.14.14.54.54,0,0,0,.3.08h.17v.13h-1.94v-.13h.16a.49.49,0,0,0,.41-.16,1,1,0,0,0,.08-.51V37.86a1.47,1.47,0,0,0,0-.46.34.34,0,0,0-.13-.14.58.58,0,0,0-.31-.08h-.16v-.12h1.94v.12H103a.54.54,0,0,0-.3.08.25.25,0,0,0-.14.16,1.41,1.41,0,0,0,0,.44Z"/><path class="cls-1" d="M109,37a2.08,2.08,0,0,1,1.53.67,2.31,2.31,0,0,1,.64,1.67,2.34,2.34,0,0,1-.65,1.71,2.17,2.17,0,0,1-3.14,0,2.42,2.42,0,0,1-.64-1.72,2.3,2.3,0,0,1,.74-1.76A2.16,2.16,0,0,1,109,37Zm-.06.25a1.23,1.23,0,0,0-1,.44,2.62,2.62,0,0,0-.45,1.65A2.73,2.73,0,0,0,108,41a1.17,1.17,0,0,0,1,.45,1.29,1.29,0,0,0,1-.49,2.42,2.42,0,0,0,.42-1.57,2.71,2.71,0,0,0-.46-1.73A1.22,1.22,0,0,0,109,37.2Z"/><path class="cls-1" d="M116.56,41.58h-1.21l-1.53-2.12h-.47v1.32a1,1,0,0,0,.09.53.47.47,0,0,0,.38.14H114v.13h-1.94v-.13h.17a.46.46,0,0,0,.41-.18,1,1,0,0,0,.07-.49V37.86a1,1,0,0,0-.09-.54.51.51,0,0,0-.39-.14h-.17v-.12h1.65a4,4,0,0,1,1.06.1,1.2,1.2,0,0,1,.58.39,1,1,0,0,1,.24.67,1,1,0,0,1-.27.72,1.53,1.53,0,0,1-.84.44l.93,1.29a2.37,2.37,0,0,0,.55.6,1.37,1.37,0,0,0,.6.18Zm-3.21-2.33h.19a1.5,1.5,0,0,0,1-.28.91.91,0,0,0,.33-.72,1,1,0,0,0-.26-.69,1,1,0,0,0-.71-.26,3.05,3.05,0,0,0-.52.06Z"/><path class="cls-1" d="M121.25,40.33l.11,0L121,41.58h-3.5v-.13h.17a.47.47,0,0,0,.41-.18,1.21,1.21,0,0,0,.07-.5V37.86a1,1,0,0,0-.1-.54.51.51,0,0,0-.38-.14h-.17v-.12h2v.12a1.17,1.17,0,0,0-.5.07.35.35,0,0,0-.2.17,1.37,1.37,0,0,0,0,.51v2.84a.85.85,0,0,0,0,.38.32.32,0,0,0,.12.11,2.44,2.44,0,0,0,.52,0h.33a2.38,2.38,0,0,0,.73-.08,1,1,0,0,0,.39-.27A2.2,2.2,0,0,0,121.25,40.33Z"/><path class="cls-1" d="M124.32,37a2.08,2.08,0,0,1,1.53.67,2.32,2.32,0,0,1,.65,1.67,2.38,2.38,0,0,1-.65,1.71,2.19,2.19,0,0,1-3.15,0,2.42,2.42,0,0,1-.63-1.72,2.29,2.29,0,0,1,.73-1.76A2.18,2.18,0,0,1,124.32,37Zm-.06.25a1.21,1.21,0,0,0-1,.44,2.55,2.55,0,0,0-.46,1.65,2.73,2.73,0,0,0,.47,1.7,1.2,1.2,0,0,0,1,.45,1.32,1.32,0,0,0,1-.49,2.48,2.48,0,0,0,.41-1.57,2.77,2.77,0,0,0-.45-1.73A1.26,1.26,0,0,0,124.26,37.2Z"/><path class="cls-1" d="M131.56,37l.12,1.43h-.12a2,2,0,0,0-.46-.81,1.44,1.44,0,0,0-1-.38,1.47,1.47,0,0,0-1.32.68,2.44,2.44,0,0,0-.37,1.37,2.68,2.68,0,0,0,.25,1.18,1.65,1.65,0,0,0,.65.78,1.54,1.54,0,0,0,.83.25,2,2,0,0,0,.49-.06,1.73,1.73,0,0,0,.45-.19V39.9a1.35,1.35,0,0,0-.05-.45.41.41,0,0,0-.16-.16,1.14,1.14,0,0,0-.39,0v-.13h1.76v.13h-.09a.35.35,0,0,0-.35.17,1.06,1.06,0,0,0-.07.49v1.38a3.16,3.16,0,0,1-.76.3,3,3,0,0,1-.83.1,2.41,2.41,0,0,1-2-.84,2.23,2.23,0,0,1-.51-1.45,2.57,2.57,0,0,1,1.22-2.15A2.32,2.32,0,0,1,130,37a2,2,0,0,1,.44,0,4.87,4.87,0,0,1,.58.18.73.73,0,0,0,.25.07.12.12,0,0,0,.1-.06.46.46,0,0,0,.06-.23Z"/><path class="cls-1" d="M134.23,37.3v1.79h1a.81.81,0,0,0,.52-.12.75.75,0,0,0,.19-.54h.12V40h-.12a2,2,0,0,0-.09-.43.44.44,0,0,0-.2-.18.91.91,0,0,0-.42-.07h-1v1.49a2.3,2.3,0,0,0,0,.37.19.19,0,0,0,.1.1.49.49,0,0,0,.25,0h.77a2.32,2.32,0,0,0,.55,0,1,1,0,0,0,.34-.21,2.44,2.44,0,0,0,.42-.63h.13l-.39,1.14h-3.48v-.13h.16a.6.6,0,0,0,.3-.07.33.33,0,0,0,.15-.16,1.89,1.89,0,0,0,0-.44V37.84a1,1,0,0,0-.09-.53.51.51,0,0,0-.4-.13h-.16v-.12h3.48l.05,1h-.13a1.28,1.28,0,0,0-.15-.49.58.58,0,0,0-.25-.21,1.65,1.65,0,0,0-.47-.05Z"/><path class="cls-1" d="M142.15,41.58h-1.21l-1.53-2.12h-.47v1.32a1,1,0,0,0,.09.53.48.48,0,0,0,.38.14h.18v.13h-1.94v-.13h.17a.46.46,0,0,0,.41-.18,1,1,0,0,0,.07-.49V37.86a1,1,0,0,0-.09-.54.53.53,0,0,0-.39-.14h-.17v-.12h1.65a4,4,0,0,1,1.06.1,1.2,1.2,0,0,1,.58.39,1,1,0,0,1,.24.67,1,1,0,0,1-.27.72,1.53,1.53,0,0,1-.84.44l.93,1.29a2.37,2.37,0,0,0,.55.6,1.37,1.37,0,0,0,.6.18Zm-3.21-2.33h.19a1.5,1.5,0,0,0,1-.28.91.91,0,0,0,.33-.72,1,1,0,0,0-.26-.69,1,1,0,0,0-.71-.26,3.05,3.05,0,0,0-.52.06Z"/><path class="cls-1" d="M144.75,41.45v.13h-1.94v-.13H143a.49.49,0,0,0,.41-.16,1,1,0,0,0,.08-.51V37.86a1.47,1.47,0,0,0-.05-.46.29.29,0,0,0-.13-.14.58.58,0,0,0-.31-.08h-.16v-.12h1.94v.12h-.17a.47.47,0,0,0-.4.16,1,1,0,0,0-.08.52v2.92a1.45,1.45,0,0,0,0,.45.27.27,0,0,0,.14.14.56.56,0,0,0,.3.08Z"/><path class="cls-1" d="M147.06,37.3v1.79h1a.81.81,0,0,0,.52-.12.75.75,0,0,0,.19-.54h.12V40h-.12a2,2,0,0,0-.09-.43.44.44,0,0,0-.2-.18.91.91,0,0,0-.42-.07h-1v1.49a2.3,2.3,0,0,0,0,.37.19.19,0,0,0,.1.1.49.49,0,0,0,.25,0h.77a2.32,2.32,0,0,0,.55,0,1,1,0,0,0,.34-.21,2.44,2.44,0,0,0,.42-.63h.14l-.4,1.14h-3.48v-.13h.16a.6.6,0,0,0,.3-.07.29.29,0,0,0,.15-.16,1.46,1.46,0,0,0,0-.44V37.84a1,1,0,0,0-.09-.53.51.51,0,0,0-.4-.13h-.16v-.12h3.48l.06,1h-.13a1.44,1.44,0,0,0-.16-.49.58.58,0,0,0-.25-.21,1.65,1.65,0,0,0-.47-.05Z"/><path class="cls-1" d="M2.85,18.36c0-1.13-.69-1.91-2.72-1.91v-.73H10.51c4.37,0,7.27,1.4,7.27,3.85,0,2.17-2.09,3.16-4.64,3.36v0c2.87.3,5.71,1.29,5.71,3.88,0,1.93-1.74,4.36-7.36,4.36H.13v-.72c2,0,2.72-.61,2.72-1.74Zm4.64,4.21h1c3,0,4.35-.95,4.35-2.79s-1.31-3-3.37-3c-1.16,0-1.94.45-1.94,1.53Zm0,5.94c0,1.08.58,1.67,2.09,1.67,2.87,0,4.29-1.11,4.29-3S13,23.6,9.55,23.6H7.49Z"/><path class="cls-1" d="M20.22,31.21v-.73c1.71,0,2.26-.5,2.26-1.4V21c0-.9-.55-1.41-2.26-1.41v-.73h8.4v.73c-1.71,0-2.26.51-2.26,1.41v7.84c0,.87.42,1.3,1.57,1.3a5.11,5.11,0,0,0,3-.52A5.87,5.87,0,0,0,33,26.48h1l-.76,4.73Z"/><path class="cls-1" d="M53.53,18.88h5.71l7.53,7.3h0V21c0-.95-.46-1.41-2.3-1.41v-.73h5.84v.73c-1.73,0-2,.46-2,1.41V31.21H67.07l-9.72-9.5h-.1v7.37c0,.9.43,1.4,2.58,1.4v.73h-6.3v-.73c1.71,0,2.18-.5,2.18-1.4V21c0-.9-.38-1.41-2.18-1.41Z"/><path class="cls-1" d="M87.82,31.21v-.73c1.71,0,2.26-.5,2.26-1.4V21c0-.9-.55-1.41-2.26-1.41v-.73h8.36c3.23,0,5.63,1.15,5.63,3.28s-2.31,3.54-5.43,3.5H93.77v3.42c0,1,.6,1.39,2.45,1.4v.73Zm6-6.53h.86c2.24,0,3.21-.8,3.21-2.41a2.36,2.36,0,0,0-2.54-2.48c-.83,0-1.53.33-1.53,1.23Z"/><path class="cls-1" d="M118.72,31.21v-.73c1.71,0,2.27-.5,2.27-1.4V21c0-.9-.56-1.41-2.27-1.41v-.73h8.41v.73c-1.71,0-2.26.51-2.26,1.41v8.06c0,.9.55,1.4,2.26,1.4v.73Z"/><path class="cls-1" d="M128.85,15.72H136l9.47,9.16h0V18.36c0-1.19-.63-1.95-2.89-1.95v-.69H150v.69c-2.09,0-2.51.76-2.51,1.95V31.21h-1.6l-12.24-12h-.11v9.5c0,1.13.54,1.75,3.24,1.75v.71h-7.93V30.5c2.15,0,2.75-.62,2.75-1.75V18.36c0-1.13-.49-1.95-2.75-1.95Z"/><path class="cls-1" d="M115.27,29.3l-5.91-10.63H108l-5.13,9.55c-.81,1.49-1.21,2-2.94,2.26v.73h6.44v-.73h-1.08c-.9,0-1.16-.46-1.16-1a2.21,2.21,0,0,1,.26-1l.65-1.24h5.07l1,1.89a1,1,0,0,1,.19.56c0,.38-.28.73-1.48.73h-.76v.73h8.33v-.73C116.26,30.41,115.75,30.16,115.27,29.3Zm-7.7-6.67,2,3.6h-3.92Z"/><path class="cls-1" d="M86.07,27.44h-.28a7.15,7.15,0,0,1-5.66,2.77c-3.14,0-4.71-1.91-4.71-5.15s1.24-5.46,4.11-5.46c2.67,0,4,1.23,5.17,3.77h.92V19H84.7l-.9.74a11.39,11.39,0,0,0-4.53-1.06c-4.78,0-8.1,2.94-8.1,6.38s2.59,6.38,8.45,6.38a8.72,8.72,0,0,0,6.45-2.32Z"/><path class="cls-1" d="M50.05,29.3,44.14,18.67H42.81l-5.13,9.55c-.81,1.49-1.21,2-2.94,2.26v.73h6.44v-.73H40.1c-.9,0-1.16-.46-1.16-1a2.21,2.21,0,0,1,.26-1l.65-1.24h5.07l1,1.89a1,1,0,0,1,.19.56c0,.38-.28.73-1.48.73h-.76v.73h8.33v-.73C51,30.41,50.53,30.16,50.05,29.3Zm-7.7-6.67,2,3.6H40.42Z"/><path class="cls-1" d="M73.53,0h3.79c2.41,0,4,.63,4,2.11A2,2,0,0,1,79.47,4V4c.64.07,2.44.44,2.44,2.09,0,1.19-1,2.38-4,2.38H73.53Zm2.54,3.71h.53c1.62,0,2-.61,2-1.48S77.87.67,76.74.67h-.67Zm0,4.12h.75c1.57,0,2.35-.65,2.35-1.55s-.49-1.9-2.37-1.9h-.73Z"/><polygon class="cls-1" points="72.24 0 69.05 0 69.05 0.67 70.19 0.67 70.19 7.76 68.77 7.76 68.53 8.51 72.24 8.51 72.24 0"/><polygon class="cls-1" points="66.15 9.79 66.58 10.39 66.58 13.53 65.11 13.53 65.11 10.63 64.19 10.63 63.94 9.79 66.15 9.79"/><polygon class="cls-1" points="67.34 9.79 67.59 10.63 70.92 10.63 68.57 13.53 70.29 13.53 72.73 10.63 72.73 9.79 67.34 9.79"/><path class="cls-1" d="M78.23,11.59c.29,0,1.07.17,1.07.89,0,.52-.33,1-1.69,1H73.32l.25-.84h3.67a.36.36,0,0,0,.37-.41v0a.35.35,0,0,0-.37-.39H75.71v-.55h1.53a.34.34,0,0,0,.37-.36v0c0-.16-.07-.33-.37-.33H73.92l-.26-.85h4c1.32,0,1.53.39,1.53.93a.87.87,0,0,1-.91.85Z"/><path class="cls-1" d="M80.67,9.79V11.9h3.54c.26,0,.34.21.34.4a.36.36,0,0,1-.34.39H80.34l-.25.84h4.28c.92,0,1.7-.31,1.7-1.1s-.73-1-1.51-1H82.13v-.77h3.13l.25-.84Z"/></svg>